<mxfile host="app.diagrams.net" modified="2022-04-05T01:28:25.292Z" agent="5.0 (X11)" etag="eJ4hT94i2JUXrgVKi5mR" version="17.4.0" type="github" pages="2">
  <diagram id="SiSv3X5nw2qQ5kaKqXUT" name="Page-1">
    <mxGraphModel dx="1203" dy="750" grid="1" gridSize="10" guides="1" tooltips="1" connect="1" arrows="1" fold="1" page="1" pageScale="1" pageWidth="850" pageHeight="1100" math="0" shadow="0">
      <root>
        <mxCell id="0" />
        <mxCell id="1" parent="0" />
        <mxCell id="91Wt7JpZKEn5FFnB24fn-1" value="" style="ellipse;whiteSpace=wrap;html=1;aspect=fixed;fillColor=#1A1A1A;" parent="1" vertex="1">
          <mxGeometry x="408" y="60" width="40" height="40" as="geometry" />
        </mxCell>
        <mxCell id="91Wt7JpZKEn5FFnB24fn-2" value="&lt;b&gt;&lt;font style=&quot;font-size: 18px&quot;&gt;Enter mobile number&lt;/font&gt;&lt;/b&gt;" style="rounded=0;whiteSpace=wrap;html=1;fillColor=none;strokeWidth=2;" parent="1" vertex="1">
          <mxGeometry x="365.5" y="160" width="125" height="60" as="geometry" />
        </mxCell>
        <mxCell id="91Wt7JpZKEn5FFnB24fn-3" value="&lt;span style=&quot;font-size: 12pt ; font-family: &amp;#34;arial&amp;#34; ; color: rgb(0 , 0 , 0) ; background-color: transparent ; font-weight: 400 ; font-style: normal ; font-variant: normal ; text-decoration: none ; vertical-align: baseline&quot; id=&quot;docs-internal-guid-ce80a6d4-7fff-799b-a1f2-2ecad6a3fb2a&quot;&gt;Submit additional &lt;/span&gt;&lt;span style=&quot;font-size: 13pt ; font-family: &amp;#34;times new roman&amp;#34; ; color: rgb(0 , 0 , 0) ; background-color: transparent ; font-weight: 400 ; font-style: normal ; font-variant: normal ; text-decoration: none ; vertical-align: baseline&quot;&gt;Craftwork photos &lt;/span&gt;" style="rounded=0;whiteSpace=wrap;html=1;fontSize=22;strokeWidth=2;fillColor=none;" parent="1" vertex="1">
          <mxGeometry x="580" y="280" width="130" height="60" as="geometry" />
        </mxCell>
        <mxCell id="vlNH0cdfhpwq6qAuflU--3" value="&lt;font style=&quot;font-size: 18px&quot;&gt;&lt;b&gt;&lt;font style=&quot;font-size: 18px&quot;&gt;if sign up for craftworker&lt;/font&gt;&lt;/b&gt;&lt;/font&gt;" style="rhombus;whiteSpace=wrap;html=1;fontSize=22;strokeWidth=2;fillColor=none;" vertex="1" parent="1">
          <mxGeometry x="550" y="140" width="207" height="100" as="geometry" />
        </mxCell>
        <mxCell id="vlNH0cdfhpwq6qAuflU--4" value="" style="endArrow=classic;html=1;rounded=0;fontSize=18;exitX=1;exitY=0.5;exitDx=0;exitDy=0;" edge="1" parent="1" source="91Wt7JpZKEn5FFnB24fn-2" target="vlNH0cdfhpwq6qAuflU--3">
          <mxGeometry width="50" height="50" relative="1" as="geometry">
            <mxPoint x="430" y="370" as="sourcePoint" />
            <mxPoint x="430" y="290" as="targetPoint" />
            <Array as="points" />
          </mxGeometry>
        </mxCell>
        <mxCell id="vlNH0cdfhpwq6qAuflU--8" value="" style="endArrow=classic;html=1;rounded=0;fontSize=18;entryX=0.5;entryY=0;entryDx=0;entryDy=0;exitX=0.5;exitY=1;exitDx=0;exitDy=0;" edge="1" parent="1" source="91Wt7JpZKEn5FFnB24fn-1" target="91Wt7JpZKEn5FFnB24fn-2">
          <mxGeometry width="50" height="50" relative="1" as="geometry">
            <mxPoint x="375" y="150" as="sourcePoint" />
            <mxPoint x="425" y="100" as="targetPoint" />
          </mxGeometry>
        </mxCell>
        <mxCell id="vlNH0cdfhpwq6qAuflU--9" value="" style="endArrow=classic;html=1;rounded=0;fontSize=18;exitX=0.5;exitY=1;exitDx=0;exitDy=0;entryX=0.566;entryY=-0.002;entryDx=0;entryDy=0;entryPerimeter=0;" edge="1" parent="1" source="vlNH0cdfhpwq6qAuflU--3" target="91Wt7JpZKEn5FFnB24fn-3">
          <mxGeometry width="50" height="50" relative="1" as="geometry">
            <mxPoint x="630" y="270" as="sourcePoint" />
            <mxPoint x="654" y="270" as="targetPoint" />
          </mxGeometry>
        </mxCell>
        <mxCell id="vlNH0cdfhpwq6qAuflU--10" value="yes" style="text;html=1;strokeColor=none;fillColor=none;align=center;verticalAlign=middle;whiteSpace=wrap;rounded=0;fontSize=18;" vertex="1" parent="1">
          <mxGeometry x="660" y="240" width="50" height="30" as="geometry" />
        </mxCell>
        <mxCell id="vlNH0cdfhpwq6qAuflU--11" value="" style="endArrow=classic;html=1;rounded=0;fontSize=18;exitX=0.5;exitY=1;exitDx=0;exitDy=0;" edge="1" parent="1" source="91Wt7JpZKEn5FFnB24fn-2" target="vlNH0cdfhpwq6qAuflU--12">
          <mxGeometry width="50" height="50" relative="1" as="geometry">
            <mxPoint x="440" y="300" as="sourcePoint" />
            <mxPoint x="428" y="270" as="targetPoint" />
          </mxGeometry>
        </mxCell>
        <mxCell id="vlNH0cdfhpwq6qAuflU--12" value="&lt;b&gt;Submit OTP&lt;/b&gt;" style="rounded=0;whiteSpace=wrap;html=1;fontSize=18;strokeWidth=2;fillColor=none;" vertex="1" parent="1">
          <mxGeometry x="368" y="260" width="120" height="60" as="geometry" />
        </mxCell>
        <mxCell id="vlNH0cdfhpwq6qAuflU--13" value="" style="endArrow=classic;html=1;rounded=0;fontSize=18;exitX=0.493;exitY=1.013;exitDx=0;exitDy=0;exitPerimeter=0;" edge="1" parent="1" source="91Wt7JpZKEn5FFnB24fn-3" target="vlNH0cdfhpwq6qAuflU--14">
          <mxGeometry width="50" height="50" relative="1" as="geometry">
            <mxPoint x="440" y="480" as="sourcePoint" />
            <mxPoint x="654" y="390" as="targetPoint" />
          </mxGeometry>
        </mxCell>
        <mxCell id="vlNH0cdfhpwq6qAuflU--14" value="&lt;span style=&quot;font-size: 12pt ; font-family: &amp;#34;times new roman&amp;#34; ; color: rgb(0 , 0 , 0) ; background-color: transparent ; font-weight: 400 ; font-style: normal ; font-variant: normal ; text-decoration: none ; vertical-align: baseline&quot; id=&quot;docs-internal-guid-46d22cc2-7fff-02d5-9dc0-b9b2e46904f9&quot;&gt;&amp;nbsp;wait for admin&lt;/span&gt; &lt;span style=&quot;font-size: 12pt ; font-family: &amp;#34;times new roman&amp;#34; ; color: rgb(0 , 0 , 0) ; background-color: transparent ; font-weight: 400 ; font-style: normal ; font-variant: normal ; text-decoration: none ; vertical-align: baseline&quot; id=&quot;docs-internal-guid-46d22cc2-7fff-02d5-9dc0-b9b2e46904f9&quot;&gt;Approval&lt;/span&gt;" style="rounded=0;whiteSpace=wrap;html=1;fontSize=18;strokeWidth=2;fillColor=none;" vertex="1" parent="1">
          <mxGeometry x="580" y="370" width="130" height="60" as="geometry" />
        </mxCell>
        <mxCell id="vlNH0cdfhpwq6qAuflU--15" value="" style="endArrow=classic;html=1;rounded=0;fontSize=18;exitX=0;exitY=0.5;exitDx=0;exitDy=0;entryX=1;entryY=0.5;entryDx=0;entryDy=0;" edge="1" parent="1" source="vlNH0cdfhpwq6qAuflU--14" target="vlNH0cdfhpwq6qAuflU--12">
          <mxGeometry width="50" height="50" relative="1" as="geometry">
            <mxPoint x="450" y="320" as="sourcePoint" />
            <mxPoint x="500" y="270" as="targetPoint" />
            <Array as="points">
              <mxPoint x="530" y="400" />
              <mxPoint x="530" y="290" />
            </Array>
          </mxGeometry>
        </mxCell>
        <mxCell id="vlNH0cdfhpwq6qAuflU--16" value="&lt;font size=&quot;1&quot;&gt;&lt;b style=&quot;font-size: 15px&quot;&gt;User successfully signup&lt;/b&gt;&lt;/font&gt;" style="rounded=0;whiteSpace=wrap;html=1;fontSize=18;strokeWidth=2;fillColor=none;" vertex="1" parent="1">
          <mxGeometry x="370.5" y="350" width="120" height="70" as="geometry" />
        </mxCell>
        <mxCell id="vlNH0cdfhpwq6qAuflU--17" value="" style="endArrow=classic;html=1;rounded=0;fontSize=15;exitX=0.5;exitY=1;exitDx=0;exitDy=0;entryX=0.481;entryY=0.008;entryDx=0;entryDy=0;entryPerimeter=0;" edge="1" parent="1" source="vlNH0cdfhpwq6qAuflU--12" target="vlNH0cdfhpwq6qAuflU--16">
          <mxGeometry width="50" height="50" relative="1" as="geometry">
            <mxPoint x="450" y="380" as="sourcePoint" />
            <mxPoint x="500" y="330" as="targetPoint" />
          </mxGeometry>
        </mxCell>
        <mxCell id="vlNH0cdfhpwq6qAuflU--18" value="" style="endArrow=classic;html=1;rounded=0;fontSize=15;exitX=0.5;exitY=1;exitDx=0;exitDy=0;" edge="1" parent="1" source="vlNH0cdfhpwq6qAuflU--16" target="vlNH0cdfhpwq6qAuflU--19">
          <mxGeometry width="50" height="50" relative="1" as="geometry">
            <mxPoint x="440" y="410" as="sourcePoint" />
            <mxPoint x="431" y="450" as="targetPoint" />
          </mxGeometry>
        </mxCell>
        <mxCell id="vlNH0cdfhpwq6qAuflU--19" value="" style="ellipse;whiteSpace=wrap;html=1;aspect=fixed;fontSize=15;strokeWidth=2;fillColor=none;" vertex="1" parent="1">
          <mxGeometry x="420.5" y="450" width="20" height="20" as="geometry" />
        </mxCell>
        <mxCell id="vlNH0cdfhpwq6qAuflU--20" value="" style="ellipse;whiteSpace=wrap;html=1;aspect=fixed;fontSize=15;strokeWidth=2;fillColor=#000000;strokeColor=#000000;" vertex="1" parent="1">
          <mxGeometry x="425" y="455" width="10" height="10" as="geometry" />
        </mxCell>
        <mxCell id="vlNH0cdfhpwq6qAuflU--21" value="" style="whiteSpace=wrap;html=1;aspect=fixed;fontSize=15;strokeColor=#000000;strokeWidth=2;fillColor=none;" vertex="1" parent="1">
          <mxGeometry x="310" y="30" width="520" height="520" as="geometry" />
        </mxCell>
      </root>
    </mxGraphModel>
  </diagram>
  <diagram id="4FN-XqgHk6GJZaGCySIM" name="Page-2">
    <mxGraphModel dx="1203" dy="750" grid="1" gridSize="10" guides="1" tooltips="1" connect="1" arrows="1" fold="1" page="1" pageScale="1" pageWidth="850" pageHeight="1100" math="0" shadow="0">
      <root>
        <mxCell id="0" />
        <mxCell id="1" parent="0" />
      </root>
    </mxGraphModel>
  </diagram>
</mxfile>
